<svg xmlns="http://www.w3.org/2000/svg" viewBox="0 0 32 32">
  <defs>
    <linearGradient id="g" x1="0%" y1="0%" x2="100%" y2="100%">
      <stop offset="0%" style="stop-color:#8b5cf6"/>
      <stop offset="100%" style="stop-color:#d946ef"/>
    </linearGradient>
  </defs>
  <rect width="32" height="32" rx="8" fill="#09090b"/>
  <path d="M16 6C11.6 6 8 9.2 8 13.2c0 2.4 1.3 4.5 3.2 5.8-.1.8-.4 1.6-.9 2.3-.2.3 0 .7.4.7 1.5 0 2.8-.6 3.8-1.4.5.1 1 .1 1.5.1 4.4 0 8-3.2 8-7.2S20.4 6 16 6z" fill="url(#g)"/>
  <circle cx="12.5" cy="13" r="1.2" fill="#09090b"/>
  <circle cx="16" cy="13" r="1.2" fill="#09090b"/>
  <circle cx="19.5" cy="13" r="1.2" fill="#09090b"/>
</svg>
